<svg width="24" height="24" viewBox="0 0 24 24" fill="none" xmlns="http://www.w3.org/2000/svg">
<path d="M13.1572 13.328H7.81718C6.27154 13.3298 4.78973 13.9447 3.6968 15.0376C2.60386 16.1305 1.98904 17.6123 1.98718 19.158V20.938C1.98718 21.0706 2.03986 21.1978 2.13363 21.2915C2.2274 21.3853 2.35457 21.438 2.48718 21.438H18.4872C18.6198 21.438 18.747 21.3853 18.8407 21.2915C18.9345 21.1978 18.9872 21.0706 18.9872 20.938V19.158C18.9856 17.6122 18.3709 16.1303 17.2779 15.0373C16.1849 13.9443 14.7029 13.3296 13.1572 13.328Z" fill="currentColor"/>
<path d="M10.4871 11.438C12.9723 11.438 14.9871 9.42332 14.9871 6.93803C14.9871 4.45275 12.9723 2.43803 10.4871 2.43803C8.00178 2.43803 5.98706 4.45275 5.98706 6.93803C5.98706 9.42332 8.00178 11.438 10.4871 11.438Z" fill="currentColor"/>
<path d="M21 10H19.5V8.5C19.5 8.23478 19.3946 7.98043 19.2071 7.79289C19.0196 7.60536 18.7652 7.5 18.5 7.5C18.2348 7.5 17.9804 7.60536 17.7929 7.79289C17.6054 7.98043 17.5 8.23478 17.5 8.5V10H16C15.7348 10 15.4804 10.1054 15.2929 10.2929C15.1054 10.4804 15 10.7348 15 11C15 11.2652 15.1054 11.5196 15.2929 11.7071C15.4804 11.8946 15.7348 12 16 12H17.5V13.5C17.5 13.7652 17.6054 14.0196 17.7929 14.2071C17.9804 14.3946 18.2348 14.5 18.5 14.5C18.7652 14.5 19.0196 14.3946 19.2071 14.2071C19.3946 14.0196 19.5 13.7652 19.5 13.5V12H21C21.2652 12 21.5196 11.8946 21.7071 11.7071C21.8946 11.5196 22 11.2652 22 11C22 10.7348 21.8946 10.4804 21.7071 10.2929C21.5196 10.1054 21.2652 10 21 10Z" fill="currentColor"/>
</svg>
