<svg width="28" height="28" viewBox="0 0 28 28" fill="none" xmlns="http://www.w3.org/2000/svg">
<path d="M25.4707 19.1862L23.3334 15.9802V11.6667C23.3334 9.19135 22.3501 6.81738 20.5997 5.06704C18.8494 3.3167 16.4754 2.33337 14 2.33337C11.5247 2.33337 9.15073 3.3167 7.40039 5.06704C5.65005 6.81738 4.66672 9.19135 4.66672 11.6667V15.9802L2.52938 19.1862C2.41263 19.362 2.34568 19.5661 2.33567 19.7769C2.32565 19.9877 2.37294 20.1972 2.47251 20.3833C2.57207 20.5693 2.7202 20.7249 2.90113 20.8335C3.08206 20.9421 3.28903 20.9997 3.50005 21H24.5C24.7111 20.9997 24.918 20.9421 25.099 20.8335C25.2799 20.7249 25.428 20.5693 25.5276 20.3833C25.6272 20.1972 25.6744 19.9877 25.6644 19.7769C25.6544 19.5661 25.5875 19.362 25.4707 19.1862Z" fill="currentColor"/>
<path d="M14 25.6666C15.0344 25.6676 16.0397 25.324 16.8572 24.6903C17.6747 24.0565 18.258 23.1686 18.515 22.1666H9.48499C9.74196 23.1686 10.3252 24.0565 11.1428 24.6903C11.9603 25.324 12.9656 25.6676 14 25.6666Z" fill="currentColor"/>
</svg>
