<svg width="28" height="28" viewBox="0 0 28 28" fill="none" xmlns="http://www.w3.org/2000/svg">
<path d="M22.1669 5.83359H21.0003V3.50025C21.0003 3.19084 20.8773 2.89409 20.6585 2.6753C20.4398 2.4565 20.143 2.33359 19.8336 2.33359C19.5242 2.33359 19.2274 2.4565 19.0086 2.6753C18.7898 2.89409 18.6669 3.19084 18.6669 3.50025V5.83359H9.33359V3.50025C9.33359 3.19084 9.21067 2.89409 8.99188 2.6753C8.77309 2.4565 8.47634 2.33359 8.16692 2.33359C7.8575 2.33359 7.56076 2.4565 7.34196 2.6753C7.12317 2.89409 7.00025 3.19084 7.00025 3.50025V5.83359H5.83359C4.90533 5.83359 4.01509 6.20234 3.35871 6.85871C2.70234 7.51509 2.33359 8.40533 2.33359 9.33359V10.5003H25.6669V9.33359C25.6669 8.40533 25.2982 7.51509 24.6418 6.85871C23.9854 6.20234 23.0952 5.83359 22.1669 5.83359Z" fill="currentColor"/>
<path d="M2.33359 22.1669C2.33359 23.0952 2.70234 23.9854 3.35871 24.6418C4.01509 25.2982 4.90533 25.6669 5.83359 25.6669H22.1669C23.0952 25.6669 23.9854 25.2982 24.6418 24.6418C25.2982 23.9854 25.6669 23.0952 25.6669 22.1669V12.8336H2.33359V22.1669Z" fill="currentColor"/>
</svg>
