<svg width="28" height="28" viewBox="0 0 28 28" fill="none" xmlns="http://www.w3.org/2000/svg">
<path d="M23.3333 9.33329V16.3333C23.3313 18.1892 22.5931 19.9685 21.2808 21.2808C19.9685 22.5931 18.1892 23.3313 16.3333 23.3333H9.33329C9.02387 23.3333 8.72713 23.4562 8.50833 23.675C8.28954 23.8938 8.16663 24.1905 8.16663 24.5C8.16663 24.8094 8.28954 25.1061 8.50833 25.3249C8.72713 25.5437 9.02387 25.6666 9.33329 25.6666H16.3333C18.8078 25.6638 21.1801 24.6795 22.9298 22.9298C24.6795 21.1801 25.6638 18.8078 25.6666 16.3333V9.33329C25.6666 9.02387 25.5437 8.72712 25.3249 8.50833C25.1061 8.28954 24.8094 8.16662 24.5 8.16662C24.1905 8.16662 23.8938 8.28954 23.675 8.50833C23.4562 8.72712 23.3333 9.02387 23.3333 9.33329Z" fill="currentColor"/>
<path d="M16.3334 22.1667C17.8799 22.1649 19.3626 21.5497 20.4562 20.4561C21.5497 19.3626 22.1649 17.8799 22.1667 16.3334V8.1667C22.1649 6.62016 21.5497 5.13749 20.4562 4.04392C19.3626 2.95035 17.8799 2.33519 16.3334 2.33337H8.16671C6.62017 2.33519 5.1375 2.95035 4.04393 4.04392C2.95036 5.13749 2.3352 6.62016 2.33337 8.1667V16.3334C2.3352 17.8799 2.95036 19.3626 4.04393 20.4561C5.1375 21.5497 6.62017 22.1649 8.16671 22.1667H16.3334ZM9.11171 10.9832L10.6031 13.0454L15.5409 8.47668C15.7681 8.26653 16.0695 8.15525 16.3788 8.16732C16.6881 8.1794 16.9799 8.31385 17.1901 8.54108C17.4002 8.76832 17.5115 9.06974 17.4994 9.37902C17.4873 9.68831 17.3529 9.98013 17.1257 10.1903L11.2219 15.652C11.1007 15.7641 10.9571 15.8491 10.8007 15.9016C10.6442 15.954 10.4784 15.9727 10.3142 15.9563C10.1499 15.94 9.99106 15.889 9.84802 15.8067C9.70498 15.7244 9.58102 15.6126 9.48434 15.4789L7.22171 12.3503C7.04952 12.0993 6.98224 11.7909 7.03423 11.491C7.08622 11.1911 7.25336 10.9234 7.49999 10.745C7.74662 10.5666 8.0532 10.4916 8.35431 10.5361C8.65542 10.5806 8.92722 10.741 9.11171 10.9832Z" fill="currentColor"/>
</svg>
