<svg width="28" height="28" viewBox="0 0 28 28" fill="none" xmlns="http://www.w3.org/2000/svg">
<path d="M22.1667 7.21608V5.83334C22.1656 4.9054 21.7966 4.01575 21.1404 3.3596C20.4843 2.70344 19.5946 2.33436 18.6667 2.33334H6.99999C6.08274 2.33287 5.20224 2.69385 4.54929 3.33806C3.89634 3.98228 3.52354 4.85783 3.51166 5.77501C3.51084 5.79519 3.49999 5.81258 3.49999 5.83334V22.1667C3.5027 23.0941 3.87232 23.9828 4.52811 24.6386C5.1839 25.2944 6.07257 25.664 6.99999 25.6667H21C21.9274 25.664 22.8161 25.2944 23.4719 24.6386C24.1277 23.9828 24.4973 23.0941 24.5 22.1667V10.5C24.4964 9.77901 24.2704 9.07668 23.8528 8.48893C23.4352 7.90118 22.8463 7.45666 22.1667 7.21608ZM18.6667 21C18.6657 21.3091 18.5425 21.6054 18.3239 21.8239C18.1053 22.0425 17.8091 22.1658 17.5 22.1667H10.5C10.1909 22.1658 9.89465 22.0425 9.67605 21.8239C9.45746 21.6054 9.33425 21.3091 9.33333 21C9.18984 20.0892 9.289 19.1567 9.62082 18.2964C9.95264 17.4361 10.5054 16.6786 11.2233 16.1C10.7582 15.4984 10.504 14.7604 10.5 14C10.5 13.0718 10.8687 12.1815 11.5251 11.5251C12.1815 10.8688 13.0717 10.5 14 10.5C14.9282 10.5 15.8185 10.8688 16.4749 11.5251C17.1312 12.1815 17.5 13.0718 17.5 14C17.496 14.7604 17.2418 15.4984 16.7767 16.1C17.4942 16.6789 18.0466 17.4365 18.3784 18.2967C18.7102 19.1569 18.8096 20.0892 18.6667 21ZM19.8333 7.00001H7.14186C6.98499 7.01606 6.8265 7.00024 6.67591 6.95349C6.52531 6.90673 6.38573 6.83001 6.26553 6.72794C6.14534 6.62587 6.04703 6.50056 5.97649 6.35953C5.90596 6.2185 5.86467 6.06466 5.8551 5.90727C5.84553 5.74987 5.86788 5.59217 5.92081 5.44363C5.97373 5.29509 6.05614 5.15879 6.16308 5.04291C6.27002 4.92703 6.39929 4.83397 6.54311 4.76931C6.68693 4.70466 6.84234 4.66975 6.99999 4.66668H18.6667C18.976 4.66699 19.2725 4.79 19.4913 5.00873C19.71 5.22745 19.833 5.52402 19.8333 5.83334V7.00001Z" fill="currentColor"/>
</svg>
