<svg width="20" height="20" viewBox="0 0 20 20" fill="none" xmlns="http://www.w3.org/2000/svg">
<path d="M9.99993 9.884L18.1306 5.44908C17.872 4.59828 17.3475 3.85278 16.6341 3.322C15.9206 2.79123 15.0558 2.50313 14.1666 2.5H5.83326C4.94404 2.50313 4.07924 2.79123 3.3658 3.322C2.65235 3.85278 2.12785 4.59828 1.86926 5.44908L9.99993 9.884Z" fill="currentColor"/>
<path d="M10.3992 11.5649C10.2768 11.6317 10.1396 11.6666 10.0001 11.6666C9.86061 11.6666 9.72337 11.6317 9.60091 11.5649L1.66675 7.23715V13.3333C1.66805 14.438 2.10745 15.497 2.88857 16.2782C3.66969 17.0593 4.72875 17.4987 5.83342 17.5H14.1667C15.2714 17.4987 16.3305 17.0593 17.1116 16.2782C17.8927 15.497 18.3321 14.438 18.3334 13.3333V7.23715L10.3992 11.5649Z" fill="currentColor"/>
</svg>
