<svg width="28" height="28" viewBox="0 0 28 28" fill="none" xmlns="http://www.w3.org/2000/svg">
<path d="M14 13.8376L25.3829 7.62872C25.0209 6.4376 24.2866 5.39389 23.2877 4.65081C22.2889 3.90772 21.0782 3.50438 19.8333 3.5H8.16662C6.92171 3.50438 5.71099 3.90772 4.71217 4.65081C3.71335 5.39389 2.97904 6.4376 2.61702 7.62872L14 13.8376Z" fill="currentColor"/>
<path d="M14.5589 16.1909C14.3874 16.2843 14.1953 16.3333 14 16.3333C13.8048 16.3333 13.6126 16.2843 13.4412 16.1909L2.33336 10.132V18.6667C2.33518 20.2132 2.95035 21.6959 4.04391 22.7894C5.13748 23.883 6.62016 24.4982 8.16669 24.5H19.8334C21.3799 24.4982 22.8626 23.883 23.9561 22.7894C25.0497 21.6959 25.6649 20.2132 25.6667 18.6667V10.132L14.5589 16.1909Z" fill="currentColor"/>
</svg>
