<svg width="28" height="28" viewBox="0 0 28 28" fill="none" xmlns="http://www.w3.org/2000/svg">
<path d="M2.33337 23.3333C2.33614 24.2607 2.70578 25.1493 3.36156 25.8051C4.01734 26.4609 4.90597 26.8305 5.83337 26.8333H12.8334V15.1666H2.33337V23.3333Z" fill="currentColor"/>
<path d="M15.1666 26.8333H22.1666C23.094 26.8305 23.9827 26.4609 24.6384 25.8051C25.2942 25.1493 25.6639 24.2607 25.6666 23.3333V15.1666H15.1666V26.8333Z" fill="currentColor"/>
<path d="M23.3333 5.83329H19.6233C19.7646 5.46066 19.8358 5.06513 19.8333 4.66662C19.8305 3.73922 19.4609 2.85059 18.8051 2.19481C18.1493 1.53903 17.2607 1.16939 16.3333 1.16662C15.4693 1.16888 14.6373 1.49337 14 2.07662C13.3626 1.49337 12.5306 1.16888 11.6666 1.16662C10.7392 1.16939 9.85058 1.53903 9.19481 2.19481C8.53903 2.85059 8.16939 3.73922 8.16662 4.66662C8.16414 5.06513 8.23534 5.46066 8.37662 5.83329H4.66662C3.73922 5.83606 2.85059 6.2057 2.19481 6.86148C1.53903 7.51725 1.1694 8.40588 1.16663 9.33329V11.6666C1.16663 11.976 1.28954 12.2728 1.50833 12.4916C1.72713 12.7104 2.02387 12.8333 2.33329 12.8333H12.8333V5.83329H11.6666C11.4359 5.83329 11.2103 5.76487 11.0185 5.63667C10.8266 5.50848 10.6771 5.32627 10.5888 5.11309C10.5005 4.89991 10.4774 4.66533 10.5224 4.43902C10.5674 4.21271 10.6785 4.00483 10.8417 3.84166C11.0048 3.6785 11.2127 3.56739 11.439 3.52237C11.6653 3.47736 11.8999 3.50046 12.1131 3.58876C12.3263 3.67706 12.5085 3.8266 12.6367 4.01846C12.7649 4.21031 12.8333 4.43588 12.8333 4.66662V5.83329H15.1666V4.66662C15.1666 4.43588 15.235 4.21031 15.3632 4.01846C15.4914 3.8266 15.6736 3.67706 15.8868 3.58876C16.1 3.50046 16.3346 3.47736 16.5609 3.52237C16.7872 3.56739 16.9951 3.6785 17.1582 3.84166C17.3214 4.00483 17.4325 4.21271 17.4775 4.43902C17.5225 4.66533 17.4994 4.89991 17.4111 5.11309C17.3228 5.32627 17.1733 5.50848 16.9815 5.63667C16.7896 5.76487 16.564 5.83329 16.3333 5.83329H15.1666V12.8333H25.6666C25.976 12.8333 26.2728 12.7104 26.4916 12.4916C26.7104 12.2728 26.8333 11.976 26.8333 11.6666V9.33329C26.8305 8.40588 26.4609 7.51725 25.8051 6.86148C25.1493 6.2057 24.2607 5.83606 23.3333 5.83329Z" fill="currentColor"/>
</svg>
