<svg width="81" height="23" viewBox="0 0 81 23" fill="none" xmlns="http://www.w3.org/2000/svg">
<path d="M0.589996 22V0.999998H6.32V9.28H9.29C10.05 9.28 10.69 9.03 11.21 8.53C11.75 8.03 12.02 7.33 12.02 6.43V0.999998H17.75V6.52C17.75 7.8 17.44 8.97 16.82 10.03C16.22 11.07 15.41 11.91 14.39 12.55L16.43 16.87C16.61 17.25 16.93 17.44 17.39 17.44H19.13V22H15.95C14.77 22 13.82 21.78 13.1 21.34C12.38 20.9 11.83 20.31 11.45 19.57L8.75 13.9H6.32V22H0.589996Z" fill="currentColor"/>
<path d="M20.7441 22V0.0999985H25.9341V22H20.7441Z" fill="currentColor"/>
<path d="M37.3466 22C35.6066 22 34.0666 21.69 32.7266 21.07C31.3866 20.45 30.3366 19.56 29.5766 18.4C28.8166 17.24 28.4366 15.87 28.4366 14.29C28.4366 12.55 28.8066 11.08 29.5466 9.88C30.2866 8.66 31.2566 7.74 32.4566 7.12C33.6766 6.5 34.9966 6.19 36.4166 6.19C37.9166 6.19 39.2266 6.51 40.3466 7.15C41.4666 7.77 42.3266 8.65 42.9266 9.79C43.5466 10.93 43.8566 12.26 43.8566 13.78C43.8566 14.1 43.8366 14.47 43.7966 14.89C43.7566 15.29 43.7066 15.63 43.6466 15.91H33.8366C33.9966 16.57 34.3566 17.06 34.9166 17.38C35.4766 17.7 36.1866 17.86 37.0466 17.86H42.1466V22H37.3466ZM33.6566 12.88H38.9366C38.9166 12.16 38.6866 11.55 38.2466 11.05C37.8066 10.55 37.1766 10.3 36.3566 10.3C35.5166 10.3 34.8766 10.56 34.4366 11.08C33.9966 11.58 33.7366 12.18 33.6566 12.88Z" fill="currentColor"/>
<path d="M54.181 22.36C52.621 22.36 51.201 22.02 49.921 21.34C48.661 20.64 47.651 19.68 46.891 18.46C46.131 17.24 45.751 15.84 45.751 14.26C45.751 12.7 46.131 11.31 46.891 10.09C47.651 8.87 48.671 7.92 49.951 7.24C51.231 6.54 52.651 6.19 54.211 6.19C55.771 6.19 57.181 6.54 58.441 7.24C59.721 7.92 60.731 8.87 61.471 10.09C62.231 11.31 62.611 12.7 62.611 14.26C62.611 15.84 62.231 17.24 61.471 18.46C60.731 19.68 59.721 20.64 58.441 21.34C57.181 22.02 55.761 22.36 54.181 22.36ZM54.181 17.74C55.141 17.74 55.911 17.41 56.491 16.75C57.091 16.09 57.391 15.26 57.391 14.26C57.391 13.26 57.091 12.43 56.491 11.77C55.911 11.11 55.141 10.78 54.181 10.78C53.221 10.78 52.441 11.11 51.841 11.77C51.261 12.43 50.971 13.26 50.971 14.26C50.971 15.26 51.261 16.09 51.841 16.75C52.441 17.41 53.221 17.74 54.181 17.74Z" fill="currentColor"/>
<path d="M65.0703 22V13.12C65.0703 11.8 65.3903 10.62 66.0303 9.58C66.6903 8.52 67.6103 7.69 68.7903 7.09C69.9903 6.49 71.3903 6.19 72.9903 6.19C74.5903 6.19 75.9703 6.49 77.1303 7.09C78.2903 7.69 79.1803 8.52 79.8003 9.58C80.4203 10.62 80.7303 11.8 80.7303 13.12V22H75.5103V13.36C75.5103 12.68 75.2703 12.08 74.7903 11.56C74.3103 11.04 73.6803 10.78 72.9003 10.78C72.1203 10.78 71.4803 11.04 70.9803 11.56C70.5003 12.08 70.2603 12.68 70.2603 13.36V22H65.0703Z" fill="currentColor"/>
</svg>
