<svg width="20" height="20" viewBox="0 0 20 20" fill="none" xmlns="http://www.w3.org/2000/svg">
<path d="M16.2962 13.3368L14.2716 11.9223C14.0069 11.7377 13.6975 11.6403 13.3766 11.6403C12.8663 11.6403 12.3873 11.8906 12.0956 12.3093L11.6256 12.9828C10.838 12.4545 9.95906 11.7169 9.1212 10.8792C8.28349 10.0415 7.54603 9.1626 7.01793 8.37494L7.69114 7.90497C8.03431 7.66602 8.2635 7.30804 8.33628 6.89728C8.40892 6.48682 8.31736 6.07208 8.07811 5.72876L6.66392 3.70422C6.36821 3.28125 5.89106 3.02856 5.38737 3.02856C5.21281 3.02856 5.04161 3.05939 4.87864 3.11951C4.69355 3.18787 4.52113 3.27179 4.35206 3.37799L4.07252 3.57483C4.00264 3.62915 3.93763 3.68866 3.87538 3.75092C3.53434 4.0918 3.29234 4.52332 3.15577 5.03357C2.57304 7.21802 4.01667 10.5212 6.748 13.2526C9.0417 15.5463 11.7973 16.9711 13.9392 16.9714H13.9393C14.3061 16.9714 14.6519 16.9287 14.9671 16.8445C15.4774 16.7081 15.9089 16.4661 16.2501 16.1249C16.3121 16.0629 16.3713 15.9979 16.4347 15.9158L16.6317 15.6348C16.728 15.481 16.8118 15.3085 16.8811 15.1221C17.1192 14.4781 16.8788 13.7439 16.2962 13.3368Z" fill="currentColor"/>
</svg>
