<svg width="28" height="28" viewBox="0 0 28 28" fill="none" xmlns="http://www.w3.org/2000/svg">
<path d="M9.33332 2.33331H5.83332C3.90032 2.33331 2.33332 3.90032 2.33332 5.83331V9.33331C2.33332 11.2663 3.90032 12.8333 5.83332 12.8333H9.33332C11.2663 12.8333 12.8333 11.2663 12.8333 9.33331V5.83331C12.8333 3.90032 11.2663 2.33331 9.33332 2.33331Z" fill="currentColor"/>
<path d="M22.1666 2.33331H18.6666C16.7337 2.33331 15.1666 3.90032 15.1666 5.83331V9.33331C15.1666 11.2663 16.7337 12.8333 18.6666 12.8333H22.1666C24.0996 12.8333 25.6666 11.2663 25.6666 9.33331V5.83331C25.6666 3.90032 24.0996 2.33331 22.1666 2.33331Z" fill="currentColor"/>
<path d="M9.33332 15.1667H5.83332C3.90032 15.1667 2.33332 16.7337 2.33332 18.6667V22.1667C2.33332 24.0997 3.90032 25.6667 5.83332 25.6667H9.33332C11.2663 25.6667 12.8333 24.0997 12.8333 22.1667V18.6667C12.8333 16.7337 11.2663 15.1667 9.33332 15.1667Z" fill="currentColor"/>
<path d="M22.1666 15.1667H18.6666C16.7337 15.1667 15.1666 16.7337 15.1666 18.6667V22.1667C15.1666 24.0997 16.7337 25.6667 18.6666 25.6667H22.1666C24.0996 25.6667 25.6666 24.0997 25.6666 22.1667V18.6667C25.6666 16.7337 24.0996 15.1667 22.1666 15.1667Z" fill="currentColor"/>
</svg>
